<svg version="1.1" xmlns="http://www.w3.org/2000/svg" xmlns:xlink="http://www.w3.org/1999/xlink" width="786.11475" height="402.1758" viewBox="0,0,786.11475,402.1758"><g transform="translate(159.04989,-26.05217)"><g data-paper-data="{&quot;isPaintingLayer&quot;:true}" fill-opacity="0.32944" fill="#ffffff" fill-rule="nonzero" stroke="none" stroke-width="1" stroke-linecap="butt" stroke-linejoin="miter" stroke-miterlimit="10" stroke-dasharray="" stroke-dashoffset="0" style="mix-blend-mode: normal"><g><path d="M293.17534,171.95432c1.13036,-0.22587 2.03384,-1.35623 4.51942,-6.10152c0,0 0.90449,-2.48558 1.5821,-6.10051c0.67761,-3.61493 -0.22687,-1.80696 -0.45275,-3.38906c-0.22487,-1.58109 -2.93632,-0.22587 -3.61493,-0.67761c-0.67862,-0.45275 -4.29455,0.22587 -5.87464,-0.22587c-1.5821,-0.45275 -2.71145,0.45174 -4.51942,0.22587c-1.80897,-0.22587 -3.61594,0 -4.74629,-0.45275c-1.12935,-0.45074 -2.25871,-0.67761 -3.8398,-2.25971c-1.5821,-1.5821 -2.71245,-0.67761 -2.48759,-3.61594c0.22788,-2.93833 -0.90248,-3.38906 0,-6.10051c0.90449,-2.71145 -2.03284,-1.80797 -4.51842,0c-2.48558,1.80797 -3.61594,-0.22587 -4.74629,-0.45074c-1.12835,-0.22587 -0.90248,1.58109 -1.12835,2.48458c-0.22687,0.90348 2.48558,3.61493 3.39007,4.06667c0.90348,0.45275 -2.26172,1.35623 -2.26172,1.35623c0,0 -0.22487,1.5821 -0.22487,2.48558c0,0.90348 -0.90348,1.13036 -1.5821,0.67862c-0.67761,-0.45275 -0.90348,0.90348 -1.58109,-0.22587c-0.67761,-1.13036 -1.35522,-1.80897 -2.03384,-2.71245c-0.67661,-0.90348 -1.58109,-3.16319 -2.03284,-4.06667c-0.45275,-0.90348 -1.80696,-1.80696 -2.25971,-2.25971c-0.45174,-0.45275 -0.90248,-2.71145 -0.90248,-4.74529c0,-2.03384 -1.80897,-3.16319 -3.39007,-2.93732c-1.58009,0.22587 -1.80797,-1.13036 -3.8408,-2.48658c-2.03284,-1.35623 -1.5821,-1.80696 -3.84181,-3.16319c-2.25971,-1.35623 -3.8398,-2.93732 -6.32638,-3.38906c-2.48658,-0.45174 -1.12935,1.5821 -0.67862,3.16319c0.45375,1.5821 0.90449,1.13036 2.48658,2.93833c1.5821,1.80696 2.25871,2.48458 2.25871,2.48458c0,0 3.39007,2.25971 4.74629,2.48658c1.35623,0.22587 4.06667,4.06667 5.19703,4.74529c1.13036,0.67761 0.67862,0.22487 0.22687,1.12935c-0.45174,0.90348 -1.13036,0 -2.25971,-0.67862c-1.13036,-0.67761 -0.90348,0.90449 -1.13036,2.25871c-0.22587,1.35623 0,1.13036 0,1.13036c0,0 -4.29154,4.51942 -4.97016,5.19703c-0.67761,0.67862 -2.26071,-0.45174 -3.38906,-1.35522c-1.12935,-0.90449 1.80696,0 2.93732,-0.45174c1.13036,-0.45074 3.38906,-3.16319 3.8408,-4.06667c0.45174,-0.90449 -1.12935,-1.35623 -1.12935,-1.35623c0,0 -1.58109,-1.5821 -1.80897,-2.25971c-0.22487,-0.67661 -2.03284,-1.58109 -3.8398,-3.16319c-1.80797,-1.5821 -2.71245,-1.12935 -3.61594,-1.5821c-0.90449,-0.45074 -2.03384,-1.12835 -3.39007,-1.80696c-1.35623,-0.67661 -2.25971,-3.61594 -2.93732,-4.29255c-0.67761,-0.67761 -1.58109,-0.22687 -1.58109,-0.22687c0,0 -1.80797,0.45174 -2.48558,-0.67761c-0.67761,-1.12935 -1.58109,-0.22587 -1.12935,2.71245c0.45074,2.93732 -5.87565,0.67661 -7.005,0.45074c-1.12935,-0.22687 -3.38906,2.25971 -3.38906,2.25971l-2.71145,4.06667c0,0 -2.48558,0.67862 -3.61493,1.35623c-1.12935,0.67761 -3.16319,4.06667 -2.48558,5.4229c0.67761,1.35623 -0.22587,1.80696 -1.58109,3.16319c-1.35723,1.35522 -5.87665,2.93732 -7.006,4.29255c-1.12935,1.35623 -2.93732,0.90348 -4.74529,-0.22687c-1.80696,-1.12835 -3.16319,-0.45074 -3.8408,-0.67661c-0.67761,-0.22687 -3.8408,-0.67761 -3.8408,-0.67761c0,0 -1.35623,-0.90549 -1.80897,-2.93833c-0.45074,-2.03384 -0.45074,-3.39007 0.22687,-4.74529c0.67862,-1.35623 0.45275,-4.06868 0.22687,-6.10152c-0.22687,-2.03284 0.22487,-3.8398 2.25871,-5.4229c2.03284,-1.58009 0,-1.12935 2.93732,-0.90248c2.93833,0.22487 4.74429,0.90248 7.22987,2.25871c2.48658,1.35623 3.84281,-0.22687 4.74629,-0.67761c0.90348,-0.45174 0.90348,0.90449 2.03284,-1.12935c1.13036,-2.03384 -0.45074,-2.48558 0.67862,-4.06768c1.12935,-1.5821 -0.67862,-1.35522 -0.67862,-1.35522c0,0 -1.12835,-2.71245 -1.80696,-2.93833c-0.67862,-0.22687 -1.35522,-1.13036 -2.71145,-2.03384c-1.35522,-0.90348 -3.38906,-2.03284 2.93732,-1.80696c6.32638,0.22587 -2.03384,-2.25971 -2.48558,-3.16319c-0.45174,-0.90348 1.35522,-1.80797 3.84181,-1.35623c2.48558,0.45275 1.12935,0 2.25871,-0.22587c1.13136,-0.22587 0.90449,-0.45174 2.93833,-0.67761c2.03384,-0.22587 1.80696,-0.67661 2.71145,-0.90348c0.90248,-0.22587 1.35522,-2.03284 3.8408,-4.06768c2.48658,-2.03284 0.67761,0 3.16319,-0.90348c2.48558,-0.90348 0.67761,-3.61393 2.03384,-4.06667c1.35623,-0.45074 2.48558,-1.12935 5.19703,-1.35623c2.71145,-0.22487 0,0 0.67761,-0.22487c0.67761,-0.22687 2.03384,-2.71245 3.8408,-3.61594c1.80897,-0.90549 0.45275,0.67761 1.35623,1.35522c0.90449,0.67761 2.93732,0.22587 4.29355,-0.67761c1.35522,-0.90348 2.71145,-0.45174 4.97016,0c2.25971,0.45174 1.13036,1.80797 2.25971,1.80797c1.12935,0 2.03284,0.67661 2.71145,-0.22687c0.67761,-0.90449 2.93732,-2.03384 4.06768,-2.03384c1.12835,0 3.16319,0.22687 3.16319,0.22687c0,0 1.35422,0.22587 2.03284,0.22587c0.67862,0 4.06768,-2.25971 3.61493,-5.64777c-0.45174,-3.38906 2.48658,-1.13036 3.8408,-0.90449c1.35623,0.22587 3.1642,-0.90348 1.5821,-5.4229c-1.5821,-4.51942 1.12935,-1.35422 2.93833,-0.90348c1.80596,0.45074 4.29255,-0.90449 5.4219,-2.03384c1.13036,-1.13036 -0.45074,-2.48558 -1.12935,-2.93732c-0.67761,-0.45174 -2.93632,0.45174 -4.29255,0.22487c-1.35623,-0.22587 -3.61594,0.67862 -4.74629,0.67862c-1.12835,0 -3.61493,-3.61493 -3.16219,-4.06768c0.45174,-0.45074 2.48558,-4.06667 3.61493,-5.4229c1.12935,-1.35522 0.22687,-2.25871 0.22687,-2.25871c0,0 -0.45275,-2.93833 -7.22987,1.35422c-6.77913,4.29455 -3.84181,2.03484 -4.29355,4.29355c-0.45074,2.25971 -1.13036,2.93933 -1.13036,5.19804c0,2.25971 2.26071,3.38906 2.26071,3.38906c0,0 -3.16319,3.61493 -3.16319,5.19703c0,1.58109 -4.97116,4.74429 -4.97116,4.74429c0,0 -2.25971,1.58109 -2.71145,0.90449c-0.45174,-0.67862 -4.06667,-0.45275 -3.8408,-3.61594c0.22687,-3.16319 -2.93732,-2.71145 -7.90848,-6.09951c-4.97116,-3.39007 -4.29355,0.22386 -5.4229,1.35422c-1.12935,1.13036 -1.58109,-7.004 -0.22587,-9.26371c1.35623,-2.25971 0,0 1.35623,-0.22587c1.35623,-0.22587 3.16319,-0.22587 4.97116,-1.12935c1.80797,-0.90348 0.90449,-2.03284 1.35623,-3.38906c0.45174,-1.35623 5.19703,-4.97116 6.55326,-6.10051c1.35623,-1.13036 6.10051,-4.29455 7.90748,-5.87565c1.80696,-1.58109 3.8408,-2.48458 6.55326,-4.51842c2.71245,-2.03384 3.84181,-1.5821 5.87464,-1.80797c2.03484,-0.22587 3.61493,0.22587 5.87565,0.45174c2.25871,0.22587 4.51942,-0.22587 6.09951,0.22587c1.58109,0.45174 4.06768,0.90348 9.94232,1.80696c5.87565,0.90449 1.5821,0.45174 5.87565,2.03384c4.29255,1.58109 4.51842,0.67761 7.22987,2.03384c2.71245,1.35522 0.67761,2.48458 0.22587,3.61493c-0.44973,1.13036 -3.38806,1.58109 -5.19603,0c-1.80797,-1.58109 -3.38906,-0.22587 -6.77913,0.45174c-3.39007,0.67862 5.19703,4.97216 6.77913,7.45674c1.58009,2.48558 4.29154,-0.67761 9.03784,-4.51842c4.74429,-3.84181 3.61594,-2.25971 7.45674,-4.06667c3.8408,-1.80797 6.55225,-1.5821 7.45674,-2.93732c0.90248,-1.35623 5.4219,-1.35623 6.55225,0c1.13036,1.35422 4.29255,-1.35723 5.64877,-0.22687c1.35623,1.13036 2.48658,-1.80696 5.87565,-3.38906c3.38906,-1.5821 2.48357,0 5.42089,2.03384c2.93933,2.03384 2.48658,0.45174 4.06868,1.5821c1.5821,1.12935 8.13435,2.03284 10.61993,-0.67862c2.48458,-2.71145 -0.90549,0 -2.71245,-3.8408c-1.80696,-3.8408 -2.48458,-1.13036 -3.16118,-5.19703c-0.67761,-4.06768 1.80696,-2.25971 4.74429,-2.25971c2.93732,0 1.35522,0.90449 3.16319,1.35623c1.80696,0.45174 1.5831,1.80696 2.48558,2.71145c0.90348,0.90348 1.35422,2.03384 1.58109,3.8408c0.22587,1.80797 -0.45074,4.97116 0.22587,5.4229c0.67761,0.45275 0.22788,2.03384 4.52042,0.90449c4.29154,-1.12935 -0.22687,-3.61594 -2.25971,-10.8458c-2.03384,-7.23087 2.48458,3.38906 4.97216,6.10051c2.48458,2.71145 4.51842,-1.80797 4.51842,-2.48558c0,-0.67761 -1.13136,-2.03384 -2.03384,-5.64877c-0.90449,-3.61493 1.80797,-1.5821 6.10152,-3.16319c4.29154,-1.58109 4.51842,-0.90248 9.03683,-1.12935c4.51741,-0.22587 7.68261,-1.80696 9.94232,-4.51842c2.25871,-2.71045 3.38906,-0.90348 4.29355,-0.90348c0.90348,0 2.93732,-0.67661 11.29755,-0.90348c8.35922,-0.22587 2.03284,0.90348 6.09951,1.35522c4.06567,0.45174 3.8408,-0.67761 6.55326,-0.45174c2.71045,0.22687 3.8408,0.90348 4.96915,1.35623c1.13036,0.45174 -0.44973,1.58109 -1.12835,1.80696c-0.67761,0.22587 -2.03284,2.03384 -3.16319,3.8408c-1.12935,1.80797 2.25971,1.80797 8.13435,1.12935c5.87565,-0.67661 6.32638,0.90449 7.90949,1.5821c1.5821,0.67761 6.10152,1.13036 8.13335,0.90449c2.03484,-0.22587 5.87565,-2.03384 9.03784,-2.03384c3.1652,0 3.1652,0.67862 5.4229,0.45174c2.25971,-0.22587 2.25971,0.67761 4.97116,2.03384c2.71145,1.35422 4.97116,1.12935 7.90848,1.58109c2.93732,0.45174 2.93732,0.22687 5.19703,0.22687c2.25971,0 3.38906,0.45174 4.06768,0.90348c0.67962,0.45174 4.29455,0.22587 5.19703,0.22587c0.90449,0 2.25971,-1.80696 3.61594,-2.71145c1.35522,-0.90348 0.90449,-0.22487 1.80797,-2.71145c0.90348,-2.48458 0.67761,0.45174 3.38906,0.90449c2.71045,0.45174 2.48458,0.90248 3.84181,1.12935c1.35522,0.22487 2.71045,1.80596 3.8408,2.03284c1.13036,0.22687 5.87364,0.45174 7.90748,0.45174c2.03384,0 6.55326,-0.22487 10.39406,0c3.84181,0.22687 7.22987,-0.45074 8.81196,1.35623c1.5821,1.80797 5.4219,0.90449 11.06967,1.35623c5.64978,0.45074 9.94433,1.12935 13.10551,2.03284c3.1652,0.90348 4.29455,0.90449 4.97216,1.5821c0.67761,0.67761 2.03484,-3.61493 2.93833,-3.8408c0.90348,-0.22587 20.78712,3.61493 22.36822,3.61493c1.5821,0 4.51842,1.80797 6.55326,2.48558c2.03384,0.67761 4.29154,0 6.77813,-0.22487c2.48458,-0.22587 10.39406,1.5821 10.61893,2.48558c0.22687,0.90449 3.8408,3.61493 4.51842,4.06768c0.67862,0.45174 -4.96915,0.22587 -6.55025,-0.67761c-1.5831,-0.90348 -9.26471,-2.71245 -10.39406,-2.48658c-1.13036,0.22687 -1.35723,2.71245 -2.48759,2.48658c-1.12935,-0.22687 -2.71245,0.90348 -2.71245,0.90348l4.7473,2.71045c0,0 6.55025,3.84281 7.22786,3.61594c0.68062,-0.22687 -1.13036,2.25971 -1.80696,1.80696c-0.58834,-0.39222 -3.22072,-0.10335 -3.90415,-0.02043c-0.56189,0.62872 -1.68636,1.85149 -3.77746,4.0871c-6.55326,7.005 -2.71245,0.45174 -3.1652,-1.35522c-0.45174,-1.80797 -2.48357,0.90449 -3.8388,1.35522c-1.35723,0.45174 -6.55326,2.03384 -5.64877,5.64877c0.90147,3.61594 2.70944,0.67862 5.4219,3.16319c2.71145,2.48558 1.58109,2.25971 2.93632,5.64877c1.35824,3.38906 -0.67761,4.97216 -0.44973,7.005c0.22587,2.03384 0,3.16319 0,5.4229c0,2.25971 -0.90449,0.90348 -2.71245,-0.45275c-1.80897,-1.35623 -1.35522,-1.35623 -3.8408,-3.61493c-2.48759,-2.25871 -2.93732,-1.5821 -3.39007,-4.97116c-0.45174,-3.39007 -2.03284,-0.67862 -4.51942,-3.8408c-2.48357,-3.1642 -2.48357,-2.48558 -2.48357,-6.32839c0,-3.8408 1.57909,-3.61393 2.71045,-5.19703c1.13036,-1.58109 -0.90449,-3.8408 -0.90449,-5.87565c0,-2.03284 -2.03384,-0.90147 -2.03384,-0.90147l-0.90147,-0.90449c0,0 -0.67761,0.22587 -2.48458,2.25871c-1.80797,2.03384 -4.07069,0.45375 -5.20004,-1.12935c-1.12935,-1.58109 -2.70944,0.90449 -4.06667,2.48658c-1.35522,1.5821 0.45174,2.93632 -1.35522,5.87565c-1.80797,2.93632 -1.5821,0.67661 -5.19703,0c-3.61694,-0.67962 -7.90848,-0.45375 -10.8458,-1.5831c-2.94033,-1.13036 -6.55527,-0.45275 -7.45875,1.12935c-0.90248,1.5821 -4.51741,3.8408 -4.51741,3.8408c0,0 -2.25971,3.61594 -1.35623,9.03884c0.90348,5.4229 1.58009,0.90449 2.93632,2.71245c1.35623,1.80696 4.06768,-0.22687 9.94232,0.45074c5.87364,0.67862 5.64978,1.12935 7.23087,3.84181c1.58109,2.71045 2.25971,3.61493 4.74529,5.4229c2.48458,1.80797 -0.45275,5.64777 0.22487,8.13435c0.68062,2.48558 -0.67761,4.06667 0.45174,4.06667c1.13036,0 -3.16118,6.32739 -3.16118,7.68261c0,1.35522 -0.67962,0.90449 -0.67962,0.90449c0,0 -0.67761,0.45174 -4.06667,0.22487c-3.38906,-0.22587 -4.52042,1.12935 -4.06768,2.93833c0.45174,1.80696 -0.22386,2.48458 -1.5821,3.8408c-1.35422,1.35723 -1.80696,4.74629 -0.44973,5.87565c1.35422,1.13036 3.61393,2.71145 7.22886,4.97016c3.61493,2.25971 3.38906,3.84181 3.38906,3.84181c0,0 -2.25871,4.06768 -3.61393,5.19703c-1.35824,1.13036 -2.93732,1.58109 -4.52042,0.67761c-1.5821,-0.90348 -1.5821,-1.13036 -1.5821,-4.97116c0,-3.84181 -2.70944,-2.93632 -5.19603,-4.74529c-0.92651,-0.67393 -1.38213,-0.93959 -1.58917,-1.0077c-0.0313,-0.91797 -0.2012,-3.49393 -1.12329,-4.4152c-1.12935,-1.12935 -2.71045,-1.58109 -2.71045,-1.58109c0,0 -4.51842,4.74429 -4.74529,2.48458c-0.22687,-2.25971 -1.58109,-1.35522 -1.80797,-4.97016c-0.22487,-3.61493 -3.61393,0.22687 -4.29355,0.22687c-0.67862,0 -1.80696,2.93632 -5.64676,7.68161c-3.84181,4.74429 3.8398,2.93632 6.77712,3.16319c2.93732,0.22587 0.45275,0.90248 3.8408,-0.22687c3.38906,-1.13036 1.5821,0.22587 1.35723,1.80696c-0.22587,1.5821 -0.90348,1.35623 -2.26071,3.16319c-1.35522,1.80696 -0.22487,2.03284 0.22687,3.38906c0.45174,1.35623 2.48458,3.61594 5.42391,6.77913c2.93632,3.16319 2.71045,3.16319 3.16118,2.93632c0.45174,-0.22487 2.71245,7.45574 3.1642,9.03884c0.45174,1.58109 -1.35623,5.19603 -2.03384,7.22987c-0.67761,2.03284 -4.51942,6.55225 -5.87464,7.23087c-1.35723,0.67761 -2.48658,1.12835 -6.32638,2.03384c-3.84181,0.90348 -4.06868,2.93732 -4.06868,2.93732c0,0 -1.17693,1.0868 -1.81154,1.65502c0.27204,0.05554 -1.28703,3.07432 -4.0631,7.83355c-3.16319,5.4229 -2.25971,0.45174 -2.25971,-4.06667c0,-4.52042 -3.16118,-4.29355 -4.96915,-5.4229c-1.80696,-1.13036 -3.16319,1.58009 -6.10051,5.64777c-2.93833,4.06768 -0.67761,4.29355 3.16118,7.45674c3.8408,3.16319 3.8408,4.97116 7.45674,10.16819c3.61594,5.19502 1.5821,4.74429 1.35723,6.77712c-0.22788,2.03384 -5.19703,7.005 -7.006,8.36123c-1.80797,1.35623 -3.16319,2.93732 -4.74529,1.58109c-1.57909,-1.35422 -2.71145,-1.58109 -2.93732,-3.16319c-0.22587,-1.5821 -2.03284,-0.90248 -4.06768,-4.29255c-2.03284,-3.38906 -2.48458,-1.13036 -3.38906,-4.06667c-0.90248,-2.93732 -2.03384,-1.80897 -3.16319,-0.67761c-1.13036,1.12935 -1.58009,4.97016 -1.13036,7.6806c0.42258,2.53175 -0.72993,6.04651 -0.88537,6.50359c0.09643,-0.46822 -1.38927,-1.40149 -1.82407,-4.01901c-0.45375,-2.71045 -0.22687,-2.93632 -0.22687,-5.87464c0,-2.93632 0.45174,0.45275 0.22687,-3.16219c-0.22788,-3.61493 -0.90549,-3.61493 -2.03484,-7.23087c-1.12935,-3.61493 -1.35522,-2.71045 -2.71045,-3.16319c-1.35522,-0.45275 -2.71045,3.38906 -3.8398,2.03284c-1.13036,-1.35623 -1.13036,-1.12935 -1.13036,-4.74529c0,-3.61594 -2.25971,-1.80797 -4.74529,-4.74429c-2.48558,-2.93833 -2.03384,-2.48558 -2.71145,-4.51942c-0.67761,-2.03384 -3.84181,-5.87464 -5.42391,-6.10051c-1.58109,-0.22587 -3.61493,-1.13036 -4.74429,-1.13036c-1.13036,0 -0.90449,0.22587 -1.5821,-0.45174c-0.67862,-0.67761 -3.84181,1.5821 -5.64877,3.38906c-1.80797,1.80696 -3.61594,3.61493 -4.74529,5.19603c-1.13036,1.5831 -6.10252,4.06768 -7.006,4.29355c-0.90248,0.22687 -2.71045,2.93833 -3.16219,4.51942c-0.45275,1.58109 -2.25971,3.61594 -2.93732,7.005c-0.67761,3.38806 0.67761,3.38806 0.67761,6.77712c0,3.38906 -0.22687,2.93833 0,5.19603c0.22788,2.26071 -1.13036,2.71145 -1.13036,2.71145c0,0 -3.16219,2.93732 -3.8408,3.1642c-0.67761,0.22487 -3.16219,1.35623 -3.39007,0c-0.22487,-1.35723 -1.80797,-1.80797 -1.80797,-3.61594c0,-1.80797 -1.35422,-2.71145 -1.58109,-5.19603c-0.22587,-2.48658 -1.58009,-1.5831 -1.80696,-4.29455c-0.22687,-2.71145 -5.19804,-11.74929 -6.32739,-14.68661c-1.13036,-2.93833 -0.67761,-1.80897 0,-6.10051c0.67761,-4.29455 -2.03284,-3.61594 -1.58009,-5.4229c0.44973,-1.80797 -1.80998,-0.67862 -2.25971,0c-0.45174,0.67661 -3.39007,2.48458 -5.19904,0.90147c-1.80696,-1.58109 -1.57909,-2.25871 -2.93732,-3.8408c-1.35522,-1.5821 -1.80696,-1.80696 -4.06667,-3.16319c-2.25971,-1.35522 -2.48558,-3.84181 -3.38906,-3.84181c-0.90248,0 -4.51942,-2.03384 -4.51942,-2.03384l-4.97116,-0.45074l-4.29154,0.22687c0,0 -4.06768,0 -7.006,-0.45275c-2.93833,-0.45074 -2.93833,0 -4.06868,-1.12935c-1.12935,-1.12935 -3.61493,-1.35522 -4.06667,-3.16319c-0.45275,-1.80596 -0.90248,-0.67661 -2.03284,-1.12935c-1.13036,-0.45074 -1.5821,0.22687 -2.03384,-0.22587c-0.45174,-0.45074 -2.71145,-0.22587 -5.4229,-0.45074c-2.71045,-0.22587 -4.06768,-1.80897 -7.004,-3.84181c-2.93833,-2.03384 -4.74529,-2.48558 -5.87565,-5.4229c-1.12935,-2.93732 -2.48458,2.25971 -0.67761,5.64877c1.80797,3.39007 1.5831,3.39007 1.80797,4.74629c0.22487,1.35422 0.90348,1.58109 1.80696,4.97016c0.90549,3.39007 2.48658,2.03384 4.06768,4.29355c1.58109,2.25971 2.93833,0 6.32638,-0.67661c3.39007,-0.67962 2.03484,-1.5831 5.4229,-4.97216c3.39007,-3.39007 1.5821,0 3.1642,2.93632c1.5821,2.93833 1.35623,2.48658 3.61594,4.74529c2.25871,2.25971 3.16319,1.80797 4.74529,3.16319c1.58109,1.35623 -0.90449,3.38906 -2.71245,5.4229c-1.80696,2.03484 -2.71145,2.25971 -3.16219,3.61594c-0.45275,1.35723 -2.71245,4.29355 -4.74629,5.87565c-2.03284,1.58109 -4.96915,4.29154 -4.96915,4.29154c0,0 -7.23288,3.38906 -8.13536,3.38906c-0.90449,0 -9.03784,5.19804 -9.03784,5.19804l-5.42391,1.35623c0,0 -4.06567,-1.13136 -4.29255,-2.03484c-0.22687,-0.90348 -2.25871,-4.74429 -2.25871,-7.68161c0,-2.93732 -4.29455,-7.45574 -4.74629,-8.81196c-0.45174,-1.35623 -3.38906,-4.06667 -4.29154,-5.4229c-0.90449,-1.35623 -3.1662,-4.97216 -3.39007,-5.87565c-0.22386,-0.90348 -1.5821,-3.16319 -2.71145,-6.32638c-1.12835,-3.16319 -5.87565,-7.45674 -5.87565,-8.36123c0,-0.90248 -2.71145,-3.38906 -3.38906,-3.38906c-0.67862,0 -2.48558,0.67862 -2.48558,0.67862c0,0 -2.52252,-1.80203 -3.22388,-2.67019c-0.10627,-0.25316 -0.17478,-0.47788 -0.19783,-0.66146c-0.48938,-0.65099 0.00805,-1.29083 -0.34643,-1.93088c-0.27694,-0.50004 -1.06117,-0.81989 -1.374,-1.40968c-0.21438,-0.40418 -0.36099,-0.81472 -0.47774,-1.22608c2.01039,0.21627 2.68791,-0.45598 3.81089,-0.68077z"/><path d="M190.81782,160.20504c0.67862,0.45275 2.48558,0 4.06768,-1.12835c1.5821,-1.12935 2.48458,0.22587 3.8408,0c1.35522,-0.22687 2.25971,-0.45275 3.8408,0.22587c1.58109,0.67761 3.16319,-0.67862 4.29255,-1.5821c1.13036,-0.90348 1.80797,-0.45174 1.80797,-0.45174c0,0 2.48658,-0.90348 11.29855,-1.58109c8.81196,-0.67862 2.93732,0 4.74529,-0.67862c1.80797,-0.67761 4.06667,-0.90348 5.64877,-1.58109c1.58109,-0.67862 0.67761,0.45174 1.80797,1.12935c1.12935,0.67761 -1.35422,2.25871 -1.5821,4.06667c-0.22587,1.80797 -0.45174,1.58009 -0.22587,4.51842c0.22587,2.93732 2.71145,0 4.51942,3.61594c1.80696,3.61393 3.61393,0.45074 5.4229,1.58109c1.80696,1.13036 3.61393,1.13036 7.22987,3.84181c3.61493,2.71045 4.29255,1.35422 6.77813,1.58109c2.48558,0.22587 1.35623,1.12935 1.80897,-0.67761c0.45174,-1.80797 2.48558,-2.03284 2.48558,-5.64877c0,-3.61493 0.45174,-1.13036 1.35522,-0.22687c0.90449,0.90348 3.16319,0.67761 4.51842,2.25971c1.35723,1.58109 4.52042,0.45174 6.78013,1.80696c2.25871,1.35623 7.68261,0 10.61993,0.67862c2.66405,0.61457 4.95649,0.48512 6.87736,0.62498c0.01022,0.03297 0.02081,0.06617 0.03179,0.09958c0.416,1.26499 1.42347,1.85767 1.99086,2.83823c0.30954,0.53495 -0.13058,1.25564 0.32506,1.88834c0.1751,0.66398 0.69663,1.65248 1.40801,2.64164c0.22995,0.5185 0.4664,0.96644 0.66446,1.16391c0.67862,0.67862 5.87464,11.07167 6.32638,13.10551c0.45275,2.03284 1.35522,2.71245 2.03384,4.97116c0.67761,2.25871 1.58109,2.71045 2.93732,6.77913c1.35623,4.06768 2.25971,2.93732 3.38906,5.87464c1.12935,2.93632 1.5821,2.25971 3.38906,4.51942c1.80797,2.2577 1.58411,0.90348 3.61694,3.8398c2.03183,2.93833 2.93632,3.84181 4.29255,6.10152c1.35422,2.25971 1.80696,4.06768 2.48458,7.22987c0.67862,3.16319 2.25971,0.90348 4.29455,1.35623c0,0 3.38906,-1.13036 9.94031,-0.67761c6.55426,0.45074 4.29455,-0.45174 5.19703,-0.67862c0.90449,-0.22587 3.61694,-0.67661 4.06667,-1.12935c0.45174,-0.45174 -1.80696,8.36022 -2.2577,9.94232c-0.45275,1.58109 -2.93833,4.51942 -2.93833,4.51942c0,0 -1.80696,2.25971 -2.03183,2.93632c-0.22687,0.67962 -3.39007,4.97216 -4.97216,7.23087c-1.58109,2.25871 -4.29255,4.29455 -5.4229,5.19804c-1.12935,0.90348 -2.71045,3.16219 -4.29255,5.64877c-1.5821,2.48458 -6.10051,7.6806 -6.10051,7.6806c0,0 -2.93732,3.61594 -3.61493,4.52042c-0.67761,0.90348 -2.26071,3.16319 -2.26071,4.06667c0,0.90248 -0.45174,3.8408 0.45275,4.97116c0.90248,1.12935 1.13036,5.64877 2.48558,9.26371c1.35522,3.61493 0.45174,2.71245 0.90449,6.55225c0.45074,3.84181 0.45074,4.51942 0.45074,5.19703c0,0.67862 -1.35623,3.61594 -1.35623,4.74629c0,1.13036 -3.39007,3.39007 -4.97016,4.29255c-1.5831,0.90449 -1.80797,1.5821 -2.93833,2.25971c-1.13036,0.67761 -4.51942,4.97016 -4.51942,4.97016c0,0 -2.48357,3.39007 -2.71145,6.77813c-0.22687,3.39007 0.45174,1.13036 0.90449,1.80998c0.45074,0.67761 0,3.61493 0.45074,5.64777c0.45174,2.03384 -0.67862,1.12935 -1.35623,1.35623c-0.67761,0.22687 -1.35522,1.5821 -2.48458,2.25971c-1.12935,0.67862 -2.48658,1.80696 -3.61694,4.74529c-1.13036,2.93933 -0.67761,1.80797 -1.35623,2.71045c-0.67862,0.90449 -0.90348,1.5821 -1.35623,2.71245c-0.45174,1.13036 -0.90348,2.71045 -2.48458,3.16219c-1.58109,0.45174 -2.93732,2.93732 -4.29355,4.06768c-1.35522,1.12935 -1.12935,1.13036 -3.16319,2.93833c-2.03284,1.80797 -2.71045,2.71145 -3.8408,3.8398c-1.13036,1.12935 -2.25871,2.03384 -3.16219,1.5831c-0.90549,-0.45275 -2.48658,1.35522 -3.61594,1.35522c-1.13036,0 -2.26071,1.35623 -3.39007,1.35623c-1.12935,0 -2.25871,0.67761 -3.61493,0c-1.35623,-0.67661 -3.1652,1.35522 -4.06768,1.58109c-0.90348,0.22587 -3.39007,-1.35522 -3.39007,-1.35522c0,0 -0.90348,-1.5821 -1.58109,-3.1642c-0.67862,-1.5821 -0.90348,-4.97116 -1.12935,-6.32638c-0.22687,-1.35422 -1.13036,-2.25971 -1.80797,-3.8408c-0.67862,-1.5821 -0.45275,-1.12935 -1.35623,-2.25971c-0.90348,-1.13036 -1.80696,-2.03384 -3.16319,-3.61493c-1.35623,-1.5821 -0.45174,-1.80797 -0.67761,-2.71245c-0.22587,-0.90348 -0.45275,-2.93833 -0.90348,-3.61594c-0.45375,-0.67761 -0.22687,-3.61594 -0.22687,-4.74529c0,-1.13036 -0.22687,-2.03284 -0.67761,-3.8408c-0.45174,-1.80696 -1.35522,-2.25971 -1.5821,-3.61594c-0.22487,-1.35522 -0.90248,-3.38906 -2.03284,-5.4219c-1.13036,-2.03384 -2.03284,-4.51942 -3.8408,-6.78013c-1.80696,-2.25871 -0.45275,-2.2577 -0.67761,-4.51741c-0.22587,-2.25971 0.67761,-3.84181 1.12935,-5.4229l1.35623,-2.03183l2.03284,-3.84281l0.45174,-1.35623c0,0 0.45275,-2.93732 0.67862,-3.61493c0.22386,-0.67761 -0.67862,-2.71145 -1.35623,-3.84181c-0.67761,-1.12935 0,-1.35522 0.22587,-2.93732c0.22587,-1.58009 -0.22487,-1.58109 -0.45174,-3.8398c-0.22587,-2.26071 -1.35522,-2.48658 -2.25871,-4.52042c-0.90449,-2.03384 -1.35623,-2.93732 -1.5831,-4.51842c-0.22386,-1.58109 -2.03183,-4.06768 -2.71045,-4.97216c-0.67761,-0.90248 -2.03384,-2.48257 -4.06768,-4.29154c-2.03384,-1.80797 -1.12935,-2.71145 -1.12935,-2.71145c0,0 0.45174,-2.93732 1.12935,-3.61594c0.67761,-0.67761 0.67761,-3.61493 0.90348,-4.97016c0.22687,-1.35522 -1.12935,-4.97116 -1.12935,-4.97116l-0.67862,-0.90348l-2.03284,-2.25871c0,0 -2.03384,0.22487 -2.48558,-0.67862c-0.45074,-0.90449 -2.25971,0.45074 -2.25971,0.45074l-1.35623,-0.22487c0,0 -1.35623,-0.90449 -1.58109,-1.80897c-0.22587,-0.90449 -1.35522,-1.5821 -2.03284,-2.48458c-0.67761,-0.90348 -1.5821,-0.22687 -2.26071,-0.90549c-0.67761,-0.67661 -1.35522,0 -3.38906,-0.67661c-2.03384,-0.67661 -1.5821,0.67661 -2.71145,0.22587c-1.12935,-0.45074 -2.25971,0.45074 -3.16219,0.45074c-0.90449,0 -3.1642,1.35723 -3.84281,1.35723c-0.67761,0 -2.93632,0.90449 -3.8408,0.90449c-0.90348,0 -2.25971,1.12835 -3.16219,0.90248c-0.90449,-0.22587 -1.5821,0.45074 -2.71145,-0.22587c-1.13036,-0.67661 -2.71145,0.90449 -3.38906,1.35623c-0.67761,0.45174 -3.1642,1.35522 -4.06768,0.90348c-0.90449,-0.45275 -2.71145,0.67761 -3.61594,0c-0.90348,-0.67962 -2.48458,-0.45275 -3.16319,-1.13036c-0.67661,-0.67761 -2.71045,-1.12935 -3.38806,-2.03284c-0.67862,-0.90449 -3.61594,-3.16219 -3.61594,-3.16219c0,0 -2.25971,-2.48558 -2.71145,-3.1642c-0.45174,-0.67862 -2.25971,-3.16319 -2.48558,-3.8408c-0.22587,-0.67761 -2.03284,-3.8408 -2.25971,-4.51942c-0.22587,-0.67761 -1.80797,-2.03384 -2.71145,-2.93732c-0.90449,-0.90449 -3.61594,-2.48558 -3.61594,-2.48558c0,0 -0.67761,-1.35522 -0.22587,-2.03384c0.45275,-0.67761 -0.22587,-3.61594 -0.22587,-3.61594c0,0 -1.35623,-2.03284 -0.90348,-3.16219c0.45074,-1.13136 1.80696,-3.61694 2.25871,-4.97116c0.45174,-1.35623 0.45174,-2.48658 0.90348,-5.4229c0.45275,-2.93833 0,-2.48558 -0.45174,-3.8408c-0.45275,-1.35623 -0.45174,-2.03384 -0.67862,-5.87565l0.45275,-1.12935c0,0 1.80797,-2.93632 2.48558,-5.4229c0.67761,-2.48558 2.03384,-4.06768 2.48558,-4.74529c0.45174,-0.67761 1.35522,-1.58009 2.25971,-2.93632c0.90449,-1.35623 2.03384,-2.71245 2.71145,-3.16319c0.67761,-0.45174 1.80696,-1.80797 1.80696,-1.80797c0,0 1.80797,-2.03384 3.1642,-2.93732c1.35623,-0.90348 4.51942,-3.8408 4.51942,-3.8408c0,0 0,-2.03284 -0.22687,-3.16319c-0.22687,-1.13036 1.58109,-2.93833 1.58109,-2.93833l0.67862,-2.03384l4.51842,-2.48458l2.25871,-2.25971l3.37675,-4.50066c0.13098,0.20608 1.16598,1.81503 1.8233,2.24697z"/><path d="M532.00384,151.06198c0.00707,0.20734 0.00707,0.33009 0.00707,0.33009c0,0 -0.35546,-0.44472 -0.00707,-0.33009z"/><path d="M189.00784,157.94031l-0.01332,0.01776c-0.00904,-0.01423 -0.01378,-0.02177 -0.01378,-0.02177z"/><path d="M480.51044,241.94562c-0.00353,0.01717 -0.0092,0.0337 -0.01711,0.04967c0,0 0.00601,-0.01705 0.01711,-0.04967z"/><path d="M340.14739,306.60833l1.60619,4.97919c0,0 0,1.80797 0,2.71145c0,0.90348 -0.22587,1.80797 -0.67862,2.71145c-0.45174,0.90348 -0.67761,4.06567 -0.90348,5.4229c-0.22587,1.35422 -1.80696,3.16219 -1.80696,4.29154c0,1.13136 -2.25971,4.29255 -2.25971,4.97116c0,0.67661 -2.25971,3.61493 -2.03484,4.29255c0.22788,0.67862 -0.90348,3.61493 -0.67761,6.10152c0.22788,2.48357 -1.80696,2.03384 -1.80696,2.03384c0,0 -1.80897,1.58009 -3.61493,1.58009c-1.80797,0 -2.71145,0.67761 -2.71145,0.67761l-2.93833,-4.51942c0,0 0,-4.74429 -0.22687,-6.32638c-0.22587,-1.5821 0.90449,-2.03384 2.03384,-2.48658c1.13036,-0.45174 1.80797,-2.71045 1.80797,-4.51741c0,-1.80797 0,-3.1642 0.22487,-3.84281c0.22687,-0.67661 0,-3.16319 -0.67761,-5.19703c-0.67661,-2.03284 1.35623,-1.58009 1.35623,-1.58009c0,0 2.25971,-1.13136 3.16319,-1.35623c0.90549,-0.22587 2.48458,-1.5821 2.48458,-1.5821l4.52042,-2.25971c0,0 2.48558,-3.61393 3.16319,-6.10051z"/><path d="M517.13758,337.10387c0,0 0.86333,-0.88742 1.76681,-1.11429c0.90348,-0.22687 2.03284,-0.67761 3.38806,-2.03384c1.35723,-1.35623 2.25871,-1.58109 3.61594,-1.80696c1.35522,-0.22587 1.80897,-0.90348 3.84181,-1.13036c2.03384,-0.22487 1.35623,-0.22487 4.29255,-1.58109c2.93632,-1.35623 3.38906,-1.35623 5.42089,-2.48558c2.03484,-1.13036 1.35723,-1.35522 2.03484,-1.5821c0.67761,-0.22587 0.90248,-1.80797 1.5821,-3.61594c0.67761,-1.80797 1.12935,-1.58109 1.58109,-2.71045c0.45074,-1.13036 0.22587,0.67761 0.90348,0.90348c0.67761,0.22687 0.90348,1.35522 1.58109,1.12835c0.67661,-0.22587 0.67661,-2.48458 0.90248,-3.38906c0.22687,-0.90449 2.03384,-0.90449 2.71145,-1.80797c0.67761,-0.90348 0.67761,-1.80696 1.5821,-2.93632c0.90147,-1.12935 2.03183,-1.5821 3.39007,-2.25971c1.35422,-0.67761 2.25871,0.90248 3.16118,2.03284c0.90449,1.12935 -0.22487,1.35623 -0.22487,1.35623c0,0 4.74328,2.03384 5.42089,1.58109c0.68062,-0.45275 -0.67661,-1.12935 0.22788,-3.61493c0.90449,-2.48658 0.67661,-0.90348 2.03484,-1.35623c1.35422,-0.45275 0,0 1.57909,-1.58109c1.5821,-1.5821 2.71245,-3.38906 5.19703,-4.06868c2.48658,-0.67761 0.67962,-0.22587 1.58109,-0.22587c0.90649,0 1.5831,0.22487 4.06768,0.45174c2.48558,0.22687 2.71245,0.22687 3.84181,0.22687c1.13036,0 1.13036,1.35522 1.13036,1.35522c0,0 -1.35723,2.03484 -1.5821,2.93833c-0.22687,0.90449 -0.45275,2.93732 -0.67761,3.8408c-0.22687,0.90348 0.90147,2.48658 1.58109,2.48658c0.67862,0 1.35623,1.80696 2.25971,2.03183c0.90449,0.22687 2.71245,2.03384 3.39007,2.71245c0.67761,0.67761 2.03284,0.22386 2.93732,0.45074c0.90147,0.22788 1.58109,-1.12935 2.71145,-0.90348c1.12935,0.22687 1.80696,-2.71145 2.48458,-3.8398c0.67761,-1.12935 2.48558,-4.97216 2.48558,-4.97216c0,0 0.90549,-4.74429 1.35723,-7.22987c0.44973,-2.48357 0.90248,-0.22487 1.13036,0.22687c0.22487,0.45074 0.90248,1.13036 1.35522,2.93732c0.45275,1.80696 1.5821,2.25971 2.25971,3.8408c0.67761,1.5831 1.13036,3.38906 1.80797,4.74629c0.67661,1.35422 0.67661,3.38806 0.90348,4.29154c0.22487,0.90348 0,4.06768 -0.67962,4.52042c-0.67761,0.45074 2.03384,1.58009 2.03384,1.58009c0,0 2.71145,0.45375 3.38906,4.74629c0.67761,4.29255 2.48558,4.06667 2.93833,5.64877c0.45174,1.5821 1.80696,1.12935 3.8408,2.03284c2.03384,0.90649 0,1.80797 1.35623,4.06868c1.35623,2.25971 0.22587,4.51741 0.45174,6.09951c0.22587,1.5831 -0.45174,2.93833 -0.45174,3.8408c0,0.90348 -1.80696,3.38906 -2.03284,6.09951c-0.22587,2.71346 -1.12935,2.93833 -1.58109,3.61694c-0.45375,0.67862 -2.25971,2.03484 -4.74529,5.87464c-2.48759,3.84181 -2.48759,2.93833 -5.19904,4.97116c-2.70944,2.03384 -2.03284,1.80797 -2.93732,2.71145c-0.90147,0.90449 -2.2567,2.25971 -3.39007,3.61493c-1.13036,1.35623 -2.03183,2.25971 -10.61793,6.10252c-8.58609,3.8398 -3.61393,1.58009 -4.29455,0.67761c-0.67761,-0.90449 -2.93632,-0.45275 -4.06567,-1.13036c-1.13036,-0.67761 -1.58009,0.67661 -2.93732,0.90348c-1.35422,0.22788 -2.93732,-1.35623 -3.84281,-2.26071c-0.90147,-0.90348 -1.12835,-0.22487 -0.90147,-1.80696c0.22487,-1.58009 -0.90449,-1.12935 0,-3.16319c0.90449,-2.03284 -1.35723,-3.16219 -1.35723,-3.16219c0,0 -0.90248,-1.35623 -0.45074,-2.48658c0.45074,-1.12835 1.80797,-3.61594 1.80797,-4.74429c0,-1.13036 -1.5821,1.12835 -2.25971,1.12835c-0.67962,0 -4.97116,2.71145 -4.97116,2.71145l-2.71245,0.22687c0,0 0.22888,-2.48658 0.22888,-3.61594c0,-1.12935 -3.39007,-2.03284 -4.52042,-4.29355c-1.12935,-2.25871 -3.61694,0.67962 -5.19603,0c-1.5821,-0.6756 -4.97216,0.67962 -6.77913,0.22788c-1.80797,-0.45375 -2.48759,2.03284 -4.06768,2.03284c-1.58109,0 -4.97116,2.25971 -6.55326,1.5821c-1.5821,-0.67862 -2.93732,2.48357 -3.8408,2.03284c-0.90348,-0.45074 -4.29355,0.67761 -5.87565,0.67761c-1.58009,0 -2.71045,1.35623 -4.51842,1.35623c-1.80797,0 -4.06768,1.13036 -5.19703,1.35623c-1.12935,0.22687 -3.84281,0.22587 -3.84281,0.22587c0,0 -1.57909,-1.35422 -1.57909,-2.03284c0,-0.67661 0.45074,-1.13036 1.57909,-0.90348c1.13136,0.22587 0.45275,-4.74529 0.90549,-6.32638c0.45074,-1.5821 -0.22687,-6.55225 -0.67761,-7.90949c-0.45375,-1.35422 0.45074,-7.22987 0.90248,-8.35922c0.45174,-1.12935 0.90348,-10.84681 1.58109,-11.74929z"/><path d="M530.43885,247.85487l1.11429,0.46178c1.13036,0.45375 1.80897,0.90649 3.38906,2.48658c1.5821,1.5821 0.22587,2.03284 0.45275,3.39007c0.22687,1.35522 -0.67862,1.80797 -1.5831,4.06667c-0.90348,2.25971 0.22788,2.93833 1.13036,4.74529c0.90348,1.80897 0,1.5831 0.45275,2.48658c0.45074,0.90549 -1.13036,0.67761 -1.80797,1.58109c-0.67761,0.90549 0,0.90549 -0.22587,2.48658c-0.22687,1.5821 -1.80797,2.03284 -3.1642,3.38906c-1.35422,1.35623 -0.67761,2.03284 -0.45174,2.26071c0.22487,0.22487 -1.13136,2.48558 -1.80797,2.48558c-0.67661,0 -0.90348,0.45174 -2.03284,0.45174c-1.12835,0 -2.93833,-0.67761 -2.93833,-0.67761c0,0 -4.96915,-0.45375 -6.55125,0c-1.5821,0.44973 -2.25971,-1.13136 -3.16319,-2.48759c-0.90449,-1.35422 -1.58009,-2.93632 -1.80797,-3.8398c-0.22587,-0.90348 -1.35522,-3.39007 -0.90348,-4.29255c0.45275,-0.90449 -0.90248,-4.29455 2.93732,-2.48658c3.8398,1.80596 2.03284,-2.71245 2.71045,-2.48658c0.67962,0.22687 1.80998,-1.35522 2.48759,-4.29255c0.67761,-2.93732 2.71145,-3.1642 3.61493,-2.93732c0.90348,0.22687 2.03384,-0.90449 3.1642,-1.12935c1.12935,-0.22687 4.06667,-4.29255 4.96915,-5.64978z"/><path d="M574.71449,270.46402c0.90549,-0.22587 4.06768,-2.48558 4.29455,1.5821c0.22587,4.06667 0.44973,2.93632 1.80797,5.19603c1.35522,2.25971 2.2567,2.93933 3.8388,1.80897c1.58109,-1.13136 3.38906,-1.13136 3.8408,-3.16319c0.45275,-2.03384 0.45275,-2.03384 1.80797,-2.03384c1.35824,0 1.80797,-0.22587 2.48859,0.67962c0.67661,0.90147 1.12634,-0.00201 4.06567,1.58009c2.93732,1.5821 5.4219,1.12835 7.23187,2.71145c1.80797,1.58109 2.71145,1.35723 5.19603,2.25971c2.48558,0.90348 1.35522,-0.45174 3.61493,2.03384c2.26071,2.48458 1.35824,3.16219 2.48558,4.29255c1.12935,1.12935 2.03484,-0.90449 1.5821,1.80696c-0.45275,2.71145 -3.61493,0 1.13036,3.8398c4.74429,3.84281 5.4229,4.52143 7.00299,5.64978c1.5831,1.13036 2.71245,2.48658 1.35824,2.48658c-1.35824,0 -5.64978,0 -6.10051,-0.67862c-0.45275,-0.67761 -2.48558,-1.13036 -3.84281,-2.71145c-1.35422,-1.58009 -4.29154,-2.71145 -4.96815,-4.06667c-0.67962,-1.35723 -1.5831,-1.80797 -2.71245,-1.80797c-1.12935,0 -2.25871,1.35522 -3.84181,2.93732c-1.5821,1.58109 -0.90147,-0.90248 -2.93732,-0.22587c-2.03484,0.67862 -4.29154,-0.22687 -5.4229,-1.13036c-1.13036,-0.90348 -0.90248,-2.25871 -2.70944,-1.58109c-1.80998,0.67761 -2.93732,0.22587 -2.25971,-1.12935c0.67761,-1.35723 0.22487,-3.1642 0.22487,-3.1642c0,0 0.67962,-2.25971 -0.90147,-2.71045c-1.5821,-0.45074 -1.5821,-2.03284 -3.1642,-2.48658c-1.5831,-0.45074 -4.06667,-1.58109 -4.06667,-1.58109c0,0 -0.22587,0 -0.90449,-0.22587c-0.67761,-0.22687 -0.67761,-0.22687 -2.48558,-0.67761c-1.80696,-0.45275 -3.1642,-0.00201 -4.06667,-1.13036c-0.90549,-1.12935 -0.45275,-2.71145 -0.45275,-2.71145c0,0 3.61493,0.45174 0,-2.25971l-3.61493,-2.71045c0,0 0.44973,-0.22687 0.22487,-0.67862c-0.23089,-0.46178 2.25871,-0.01004 2.25871,-0.01004z"/><path d="M473.03258,251.7017c0,0 1.12935,1.13136 2.93732,0.90449c1.80696,-0.22687 3.16118,3.61493 4.29355,4.97016c1.12835,1.35623 1.80797,2.03384 4.29255,3.61594c2.48458,1.58109 2.25871,-1.35623 5.64877,3.38906c3.38906,4.74429 1.80696,1.80797 3.38906,4.74429c1.58109,2.94033 2.48558,4.52042 3.38906,5.20004c0.90248,0.67761 1.5821,2.48357 1.80897,3.16219c0.22487,0.67761 1.80596,2.71045 1.80596,3.38906c0,0.67761 0.45275,2.48558 -0.90248,4.06667c-1.35623,1.5821 -2.48658,1.80797 -2.48658,1.80797c0,0 -2.71145,-1.35623 -3.61493,-2.71145c-0.90449,-1.35522 -2.03284,-2.48558 -3.61594,-5.19603c-1.58109,-2.71245 -3.38906,-5.64978 -4.29255,-7.005c-0.90348,-1.35723 -2.25971,-2.71346 -2.93732,-4.06768c-0.67761,-1.35723 -2.48558,-5.4229 -3.38906,-5.87565c-0.90348,-0.45275 -1.13036,-1.80696 -2.71245,-3.38906c-1.58009,-1.5821 -1.35522,-2.93732 -2.03284,-3.8408c-0.67761,-0.90348 -2.25871,-2.93933 -2.25871,-2.93933l0.66255,-0.22085z"/><path d="M33.55867,427.95103c-1.5821,-0.90348 -4.97116,-2.48558 -6.10051,-3.38906c-1.12935,-0.90348 -4.51842,-5.87665 -4.51842,-5.87665l-2.48658,-4.74529c0,0 -2.93632,-3.61493 -2.25871,-4.97016c0.67761,-1.35623 2.03384,-2.25971 2.03384,-2.93732c0,-0.67761 1.35522,-2.48658 0.22487,-3.16319c-1.12935,-0.67862 -1.12935,-0.90348 -1.80797,-2.93732c-0.67761,-2.03284 -0.67761,-3.84281 -1.58109,-4.29355c-0.90449,-0.45074 -1.5821,-3.38906 -2.48558,-3.61493c-0.90348,-0.22687 -1.80797,-1.80797 -1.80797,-1.80797l-1.35623,-18.30255c0,0 -0.45275,-8.35922 -0.90348,-10.16819c-0.45275,-1.80696 0.67761,-5.64777 -0.45275,-9.03784c-1.12935,-3.38906 0.22687,-7.45574 -0.45174,-8.81196c-0.67761,-1.35623 0.45174,-5.19603 -0.22587,-8.81096c-0.67761,-3.61493 2.71145,-8.13435 0,-9.48958c-2.71145,-1.35723 -0.67761,-3.39007 -2.93732,-3.39007c-2.25871,0 -3.8408,-1.13036 -5.87464,-2.71045c-2.03384,-1.5821 -5.87565,-4.52042 -7.005,-5.65078c-1.12935,-1.12835 -4.74529,-4.06667 -5.87464,-4.97016c-1.12935,-0.90348 -2.25971,-4.74529 -3.16319,-5.87565c-0.90348,-1.12835 -1.35522,-4.51741 -2.71145,-6.55125c-1.35623,-2.03284 -3.16319,-5.4219 -3.61594,-6.10051c-0.45174,-0.67761 -5.4229,-6.55225 -5.4229,-6.55225l0.45174,-3.61493c0,0 3.38906,-2.03384 2.93732,-2.71145c-0.45174,-0.67862 0.22687,-1.35723 -1.35623,-2.71145c-1.5821,-1.35723 -1.35623,-3.84281 0,-4.97116c1.35623,-1.13136 3.38906,-4.74629 3.38906,-4.74629l3.38906,-5.64777c0,0 2.71245,-2.93933 2.71245,-4.97216c0,-2.03284 3.8408,-3.38806 1.58109,-5.19603c-2.25971,-1.80897 -1.12935,-3.39007 -1.80797,-4.74629c-0.67862,-1.35522 -0.22587,-2.25871 1.80797,-3.61493c2.03384,-1.35623 5.64877,-6.32638 5.64877,-6.32638c0,0 2.71145,-0.67862 3.38906,-0.67862c0.67761,0 1.80797,-7.23187 3.84181,-2.48658c2.03384,4.74529 2.71145,2.25971 2.03384,5.64877c-0.67862,3.38906 0.90348,2.71245 1.80696,1.80897c0.90348,-0.90549 -0.45275,0.67761 1.35522,-3.39107c1.80696,-4.06667 1.13036,-5.4219 2.25971,-4.29154c1.12935,1.13036 1.58109,1.35623 3.61493,2.03384c2.03284,0.67761 2.71145,0.45074 3.38806,1.80696c0.67761,1.35623 0.45275,-0.45174 4.29355,0.22687c3.8408,0.67862 9.26371,-1.35623 8.58609,0.90248c-0.67761,2.25971 -2.03384,-0.22587 1.12935,2.25971c3.16319,2.48658 3.61594,2.93732 5.4229,3.39007c1.80696,0.45174 3.38906,0.22587 6.10152,2.93732c2.71145,2.71045 3.38906,2.93732 4.06667,4.29154c0.67761,1.35723 1.80696,0.45275 2.93732,1.80797c1.12935,1.35723 2.71145,1.35723 4.29255,1.35723c1.58109,0 0,-1.35723 2.48558,0.45174c2.48658,1.80696 4.29355,2.03183 5.4229,5.64777c1.12935,3.61794 3.38906,3.39007 1.58109,7.006c-1.80696,3.61594 -5.4219,5.19703 -3.8408,4.97116c1.58109,-0.22687 4.51942,-1.5831 5.4229,-1.35623c0.90348,0.22487 1.35522,-0.67761 2.71145,0c1.35623,0.67761 1.5821,-0.90348 1.35623,0.67761c-0.22687,1.5821 -0.22687,0 -0.22687,1.5821c0,1.58109 -0.45174,-1.5821 2.25971,-0.90348c2.71145,0.67761 1.12935,-1.35723 4.29255,1.58109c3.1642,2.93833 3.1642,2.03484 4.29255,3.61594c1.13036,1.58009 2.25971,-0.90248 2.93833,-0.22587c0.67862,0.67661 2.71145,0.22487 4.74529,0.67761c2.03384,0.45074 0.67761,-1.35522 3.84181,0.67761c3.16219,2.03284 6.32638,1.35522 7.004,3.16319c0.67761,1.80696 2.48658,1.12935 3.38906,2.25971c0.90248,1.13036 1.35522,-0.45275 2.25971,1.13036c0.90348,1.58009 3.61594,1.12835 3.16319,2.70944c-0.45275,1.5831 0.67661,0.67862 0.22487,2.93732c-0.45074,2.26172 -2.03384,5.87665 -3.38806,6.77913c-1.35623,0.90449 -1.35522,2.03384 -2.25971,3.16319c-0.90348,1.13136 -0.67761,-1.12935 -1.80797,2.03384c-1.12935,3.1642 -0.90348,3.61594 -1.80696,6.55225c-0.90348,2.93632 -0.22587,0 -0.90348,2.93732c-0.67761,2.93732 -0.22587,4.74529 -0.90348,8.13536c-0.67761,3.38806 -0.45174,3.38906 -0.90348,5.87464c-0.45174,2.48558 1.12935,-1.12835 -0.90449,4.06667c-2.03284,5.19804 -2.25871,4.97016 -2.93632,7.23087c-0.67862,2.26071 0.22587,0.45174 -2.25971,1.80797c-2.48558,1.35723 -1.12935,0.90348 -4.06768,1.80797c-2.93632,0.90348 -6.55225,1.80897 -7.68161,2.03384c-1.12935,0.22487 -5.64877,1.58109 -4.29255,4.29154c1.35623,2.71245 1.35623,3.1642 0,6.55426c-1.35623,3.38806 -3.38906,4.51942 -3.38906,6.09951c0,1.58109 -0.90449,3.16219 -1.12935,4.29255c-0.22687,1.13036 2.03284,-1.13036 -0.67761,2.25971c-2.71145,3.38906 -2.93732,2.48558 -3.84181,4.51942c-0.90348,2.03284 0,0.45074 -0.90348,2.03284c-0.90348,1.58109 -3.16319,2.25871 -3.16319,2.25871c0,0 0.22487,1.13036 -0.67862,0.67862c-0.90449,-0.45074 -0.67761,0.22587 -4.06768,-0.67862c-3.38906,-0.90348 -3.8408,-3.16118 -4.29255,-1.58109c-0.45174,1.58109 0.22587,2.48658 2.25971,4.06768c2.03284,1.5821 5.4229,2.03284 4.51842,3.61594c-0.90348,1.5821 -0.90348,1.5821 -1.58109,2.48558c-0.67862,0.90449 0.90348,0.22587 -0.67862,0.90449c-1.58109,0.67761 -2.48558,3.61594 -3.16319,3.61594c-0.67761,0 -1.13036,1.12935 -2.03384,0.67761c-0.90348,-0.45275 -3.16219,-2.03384 -3.61493,-1.13036c-0.45174,0.90248 -1.35623,-1.13036 -1.13036,2.03284c0.22687,3.16319 0.67862,4.97116 -0.45174,5.64978c-1.12935,0.67761 -3.84181,0 -3.84181,0l-0.45174,-1.13036l-1.58109,0.45174c0,0 -0.67761,2.71145 0.45174,3.16319c1.12935,0.45174 0.90348,0.90248 2.03284,2.25871c1.13036,1.35623 0.45275,3.84181 0.45275,3.84181c0,0 0,0.67862 -1.12935,1.80797c-1.12935,1.12935 -1.5821,2.03384 -1.80797,2.71145c-0.22687,0.67761 -1.5821,3.61594 0.45174,3.38906c2.03284,-0.22687 3.61594,-1.35623 3.61594,2.25971c0,3.61493 0.90348,2.71245 -0.22587,5.19703c-1.13036,2.48558 -2.03384,2.71145 -2.25971,4.97016c-0.22487,2.25971 0.22687,2.48558 0.67862,3.84181c0.45174,1.35623 1.5821,0.67761 0.45174,1.35623c-1.12433,0.64248 -4.50737,-0.03012 -4.50737,-0.03012z"/><path d="M-24.81532,244.02511l-2.86103,-0.90348l-2.71145,-2.03384l-3.38906,-0.67862c0,0 -2.48558,-2.25871 -3.16219,-2.70944c-0.67862,-0.45275 -1.5821,-1.13036 -1.5821,-2.71245c0,-1.58009 -0.45174,-1.35623 -0.67761,-3.16319c-0.22587,-1.80797 -1.80797,-1.80797 -2.48558,-2.93732c-0.67761,-1.12935 -1.35522,-1.80696 -2.25871,-2.93632c-0.90348,-1.13136 -1.35623,-0.22687 -2.25871,-0.45275c-0.90449,-0.22687 -0.90449,-0.22687 -2.25971,-0.22687c-1.35623,0 -2.25971,0 -3.38906,-0.90348c-1.12935,-0.90348 -2.25871,-0.67761 -3.38906,-1.80696c-1.13036,-1.12935 -1.80797,-1.12935 -2.48558,-2.03284c-0.67761,-0.90449 -2.03384,-0.90449 -2.71145,-2.03484c-0.67761,-1.12935 -2.25971,0.22587 -2.93732,-0.22487c-0.67761,-0.45174 -2.48558,0.90348 -2.48558,0.90348c0,0 -2.03384,0 -2.71145,-0.22587c-0.67761,-0.22487 -2.48458,-0.67761 -2.48458,-0.67761c0,0 -2.71245,-0.45275 -3.61694,-0.90449c-0.90248,-0.45174 -3.38806,-2.03384 -3.38806,-2.03384c0,0 -2.93732,-1.12835 -3.38906,-2.03284c-0.45275,-0.90449 -3.61594,-2.03384 -3.84181,-2.71145c-0.22587,-0.67761 -3.38906,-1.80696 -3.38906,-1.80696c0,0 -0.90348,-2.26071 -0.45174,-4.29355c0.45275,-2.03284 0.90449,-1.58009 0.22687,-3.38906c-0.67761,-1.80696 -1.35623,-1.80696 -2.48558,-4.29255c-1.12935,-2.48558 -1.35623,-3.16319 -3.39007,-6.32638c-2.03284,-3.16319 -1.12935,-0.67761 -2.03284,-2.25971c-0.90449,-1.58009 -2.48558,-5.4229 -3.16319,-6.55225c-0.67761,-1.12835 -1.35623,-2.03284 -1.58109,-4.74429c-0.22587,-2.71145 -0.45275,-1.80897 -2.25971,-5.19804c-1.80797,-3.38806 -2.48558,-0.45074 -3.38906,0c-0.90449,0.45275 0,2.71245 0.67761,4.74529c0.67761,2.03384 0.67761,2.26071 2.03284,4.29355c1.35522,2.03284 0.67761,3.61493 1.12935,4.97116c0.45174,1.35623 0.45174,2.71145 0.90348,3.8408c0.45174,1.13036 0.67862,5.19703 0.67862,4.97216c0,-0.22687 0,0 -0.22687,-0.90549c-0.22587,-0.90248 -0.22587,-0.90248 -1.12935,-2.71045c-0.90449,-1.80596 -1.5821,-2.03284 -1.5821,-2.03284l-1.35623,-2.93833c0,0 -1.58109,-2.48458 -1.80797,-4.97116c-0.22487,-2.48558 -1.58109,-4.74429 -1.58109,-4.74429c0,0 -0.45174,-7.006 -0.22587,-8.13536c0.22687,-1.12935 -1.80696,-2.48658 -3.38906,-3.61594c-1.58109,-1.12935 -2.25971,-1.12935 -3.16319,-2.48458c-0.90348,-1.35623 -2.03284,-4.74529 -2.48558,-7.23087c-0.45174,-2.48658 0,-6.10152 -0.45174,-9.49058c-0.45174,-3.38906 0.90449,-2.71145 2.48558,-4.29255c1.58109,-1.58109 2.48558,-4.29355 3.61493,-5.87565c1.13036,-1.58009 3.16319,-3.8408 4.74529,-5.64777c1.5821,-1.80797 3.38906,-5.19703 3.38906,-5.19703l1.12935,-4.06667c0,0 2.03384,-0.22687 2.93732,-0.90348c0.90348,-0.67661 -1.80797,-10.39406 -2.03384,-12.4269c-0.22587,-2.03384 0,-2.03384 0.45174,-2.93732c0.45174,-0.90348 1.12935,-8.35922 0.45174,-11.07167c-0.67761,-2.71045 -1.35623,-1.35623 -2.48558,-2.93732c-1.12935,-1.5821 -2.03284,1.13036 -2.48558,-1.35522c-0.45074,-2.48558 -2.25871,-1.35623 -9.03784,-2.93732c-6.77813,-1.5821 -3.8408,-0.67862 -5.87464,-0.90348c-2.03284,-0.22687 0,0 -0.90348,0c-0.90449,0 -1.35623,0 -2.71145,-0.67862c-1.35623,-0.67761 -3.39007,0.45275 -5.19703,1.5821c-1.80797,1.13036 -1.80797,0.45174 -3.16319,1.35522c-1.35623,0.90449 -1.13036,0.67862 -1.35623,-0.45074c-0.22587,-1.12935 1.13036,-2.03384 -0.90348,-1.35623c-2.03384,0.67962 -2.71145,2.03384 -4.06768,2.93833c-1.35522,0.90348 -3.61493,1.12935 -5.87464,2.25871c-2.25971,1.12935 -3.8408,-0.22487 -6.55225,1.5821c-2.71045,1.80696 -1.80797,0.22687 -0.45174,-1.5821c1.35623,-1.80596 -1.13036,-0.22487 -0.90348,-0.90348c0.22587,-0.67661 -2.25971,-1.35422 -4.29255,-2.03284c-2.03384,-0.67761 0.67761,-0.90348 -0.22587,-1.58109c-0.90348,-0.67862 -0.45174,-0.67862 0,-3.16319c0.45174,-2.48558 1.35623,-1.13036 3.61493,-3.38906c2.25871,-2.25971 2.03284,-1.12935 4.51942,-1.35623c2.48558,-0.22687 5.19703,-0.45275 6.32638,-0.67761c1.12935,-0.22687 2.71145,-1.35723 4.51942,-3.61594c1.80797,-2.25971 -0.22587,-1.12935 -1.5821,-1.35623c-1.35522,-0.22587 -2.48558,1.12935 -2.93732,1.80696c-0.45275,0.67862 -3.61493,-1.35522 -4.06768,-2.25871c-0.45174,-0.90348 1.5821,-2.26071 2.71145,-2.93833c1.13036,-0.67761 3.84181,-0.22687 6.32739,0.67761c2.48458,0.90348 2.93732,0.90348 2.93732,0.90348c0,0 2.03384,-1.58109 1.80696,-2.25871c-0.22587,-0.67862 0,-1.80797 -1.80696,-2.93732c-1.80797,-1.13036 3.61493,-2.48458 4.74529,-3.16319c1.12935,-0.67761 5.4229,-1.13036 6.55225,-0.90449c1.12835,0.22587 6.77813,-2.93732 7.90748,-2.25871c1.13036,0.67761 8.36123,-0.67862 9.26471,-0.45275c0.90348,0.22587 8.35922,-1.58109 11.97516,-1.80696c3.61493,-0.22687 6.10051,0 10.16719,0c4.06768,0 1.12935,1.35522 3.16319,2.93732c2.03384,1.58109 1.35522,2.03384 2.25871,2.25871c0.90449,0.22587 0,0 0.67862,1.12935c0.67761,1.13036 4.74429,1.13036 6.55225,0.90348c1.80696,-0.22587 7.45574,-2.48558 11.29755,-3.16319c3.84281,-0.67862 8.81297,-0.90348 10.62094,-1.12935c1.80696,-0.22587 6.55125,1.58109 6.55125,1.58109c0,0 14.68862,0.45275 15.36623,0.67761c0.67661,0.22587 -0.67761,2.03384 0,2.03384c0.67661,0 2.03284,1.13036 4.06667,1.13036c2.03183,0 3.8408,1.12935 4.51842,0.90348c0.67761,-0.22687 2.71145,2.93732 2.71145,2.25971c0,-0.67862 2.03284,-2.48658 3.38806,-3.84181c1.35723,-1.35623 3.1642,-0.22587 4.74629,-0.45275c1.58009,-0.22587 7.68161,-0.22587 9.71545,0c2.03384,0.22587 3.61493,1.58109 4.74529,1.58109c1.13036,0 1.35623,0.22687 2.71145,1.35623c1.35623,1.13036 6.77913,-3.61594 8.36123,-8.13435c1.5821,-4.51842 3.61493,-2.93732 5.87464,-3.8408c2.25871,-0.90348 0.90348,2.03384 1.12935,4.06768c0.22587,2.03284 0.22587,1.35522 1.80797,1.80696c1.5821,0.45074 1.35522,0.67761 1.35522,0.67761c0,0 -0.67862,1.80696 -0.45174,2.93732c0.22487,1.12935 0.45174,0.90348 3.16319,-0.45275c2.71145,-1.35522 1.58109,0 5.4229,-1.80696c3.8408,-1.80696 2.25971,-2.25871 3.38906,-2.03384c1.13036,0.22687 2.03384,-0.45074 1.80797,1.80797c-0.22587,2.25971 -2.93732,3.1642 -4.51842,4.06768c-1.5831,0.90348 -4.29355,0.67661 -6.10152,1.58109c-1.80696,0.90248 -3.8408,1.58109 -5.4229,3.38806c-1.58109,1.80897 -1.58109,0.22687 -1.80797,-0.45074c-0.22587,-0.67761 -1.80797,-1.35522 -2.71145,-1.80797c-0.90348,-0.45174 -0.45174,2.71245 -0.45174,2.71245c0,0 -0.22587,2.03284 -1.12935,3.16319c-0.90449,1.12935 -3.61493,0.90348 -5.19703,1.35522c-1.5821,0.45275 -7.005,2.93732 -10.16819,4.06768c-3.16319,1.12935 -9.26371,6.55225 -9.71545,7.68161c-0.45275,1.12935 -0.22587,4.06667 0.22587,5.4229c0.45174,1.35623 4.97116,2.93732 4.74429,3.8408c-0.22487,0.90449 14.23587,3.16319 14.23587,3.16319l-2.03384,2.03384c0,0 -1.35522,4.97016 -0.22587,6.32638c1.12935,1.35623 4.51942,2.03384 5.87464,1.58109c1.35723,-0.45174 2.48658,-4.74328 2.48658,-6.55225c0,-1.80696 2.93632,-2.03384 2.93632,-2.03384c0,0 3.1642,-2.03284 6.77913,-2.48458c3.61493,-0.45174 0.45074,-2.48458 1.12935,-9.49058c0.67761,-7.004 2.03284,-2.71045 2.93632,-3.16319c0.90549,-0.45275 5.64978,-4.74529 6.55326,-6.10051c0.90449,-1.35623 4.06667,0.67761 5.4229,0.67761c1.35623,0 4.97116,0.45275 5.87464,2.71245c0.90348,2.25871 1.35623,1.35422 0.67761,2.93732c-0.67761,1.58109 1.13036,4.97016 2.48658,4.29255c1.35522,-0.67761 7.68161,-3.84181 8.81196,-4.51942c1.12935,-0.67661 1.58009,0 2.25871,0.22687c0.67761,0.22587 0,2.93632 0,2.93632c0,0 0.22587,1.35623 -0.45174,4.51942c-0.67862,3.16219 0.22587,2.71145 1.12935,3.38906c0.90348,0.67761 0.67761,1.13036 2.48558,4.06667c1.80797,2.93833 1.12935,0.22587 2.03284,-0.22587c0.90348,-0.45174 2.03384,1.5821 3.16319,2.48558c1.12935,0.90348 -0.90348,2.93732 -0.90348,2.93732c0,0 -1.80696,1.35522 -2.25971,2.25871c-0.45174,0.90549 -3.61594,2.71245 -5.19703,3.84181c-1.5821,1.13036 -4.29355,0.67761 -6.32638,0.67761c-2.03284,0 -10.8458,0.22587 -14.46074,1.12935c-3.61493,0.90348 -6.55225,2.25971 -7.45674,2.71245c-0.90348,0.45275 -1.35522,2.48458 0,2.25871c1.35623,-0.22587 2.93732,0.22587 3.61594,0c0.67761,-0.22487 5.87464,-1.35522 7.90748,-0.45174c2.03384,0.90348 -1.12935,1.5821 -3.61493,3.8408c-2.48558,2.25971 0.90449,2.03484 3.16319,2.71245c2.25971,0.67862 2.03384,0.45275 5.4229,-0.90348c3.39007,-1.35522 1.5821,-0.45174 2.48558,0.22687c0.90449,0.67661 -0.67761,2.03284 -0.67761,2.03284c0,0 -0.22587,0.45174 -3.61594,1.58109c-3.38906,1.13036 -2.25871,0.22687 -3.8408,0.45275c-1.5821,0.22487 -1.35522,0.90348 -5.64877,4.29255c-4.29355,3.39007 -3.61393,0.45174 -2.71145,-1.80696c0.90348,-2.25971 -2.03384,-0.67862 2.48558,-3.38906c4.51942,-2.71245 -0.45174,-0.45275 -2.03384,0c-1.58109,0.45275 -5.4229,2.48458 -6.55225,2.48458c-1.13036,0 -4.06768,2.71245 -6.32638,4.51942c-2.25971,1.80696 -2.25971,2.25971 -2.25971,4.29255c0,2.03384 -3.61594,0.90549 -4.29355,0.90549c-0.67761,0 -4.97116,2.03284 -4.74529,3.16219c0.22587,1.12835 -2.93632,2.93732 -2.93632,2.93732c0,0 -2.93732,2.25871 -3.1642,3.16219c-0.22687,0.90348 -4.51942,4.06768 -4.74529,5.87464c-0.22687,1.80797 -1.5821,2.48558 -1.5821,2.48558c0,0 -3.61493,2.48558 -5.19603,3.38906c-1.5821,0.90348 -8.13435,5.4229 -10.8458,7.45574c-2.71145,2.03284 -2.71145,2.93732 -2.25871,4.51942c0.45174,1.5821 -0.67862,2.93833 0.90348,7.68261c1.58109,4.74529 -0.67862,6.10152 -0.67862,6.10152c0,0 -1.35522,1.80696 -2.03284,2.48458c-0.67761,0.67862 -2.25871,-2.71145 -2.25871,-2.71145c0,0 -1.12935,-2.48558 -1.12935,-6.55326c0,-4.06667 -0.90449,-1.80696 -0.90449,-2.48458c0,-0.67862 -1.12935,-0.67862 -0.90348,-1.35623c0.22587,-0.67661 -2.03284,-0.90248 -3.61493,-2.25871c-1.58109,-1.35623 -2.48558,-0.22587 -2.93732,-0.90348c-0.45174,-0.67761 -3.38906,0.22587 -3.38906,-0.45275c0,-0.67761 -1.80696,0.22587 -3.61493,3.1642c-1.80696,2.93732 -2.03384,1.80797 -3.16319,1.58109c-1.12935,-0.22587 -3.16319,0.67761 -3.61594,-1.80696c-0.45174,-2.48558 -3.38906,0 -4.51842,0c-1.12935,0 -2.48658,0.45074 -4.06768,0.90348c-1.58109,0.45275 -3.16319,1.58109 -4.06667,2.48558c-0.90348,0.90348 -4.29355,2.03384 -4.97116,2.93732c-0.67761,0.90348 -1.35623,3.16319 -1.12935,3.8408c0.22687,0.67862 -2.48558,5.19804 -2.25971,6.32739c0.22587,1.13036 -2.25871,5.87464 -2.25871,7.45674c0,1.58009 0.45174,4.97016 1.35522,6.55225c0.90348,1.58109 5.64877,4.06667 6.77813,4.29255c1.13036,0.22587 4.51942,0.45174 4.51942,0.45174c0,0 2.71145,-1.35522 4.06667,-1.80797c1.35623,-0.45174 2.48658,-3.38906 3.61594,-6.10152c1.12935,-2.71045 0.90348,-1.12835 2.25871,-1.80696c1.35623,-0.67761 3.61594,-0.22587 4.97116,0.67862c1.35522,0.90248 0.67761,1.12835 0.67761,1.80696c0,0.67661 -2.03384,5.64877 -2.48558,6.77813c-0.45174,1.12935 -3.38906,8.13335 -2.93732,7.90748c0.45174,-0.22487 2.93833,-0.90348 4.97116,-0.90348c2.03384,0 5.19703,0.22587 6.77913,1.12935c1.58109,0.90449 0.22487,1.13036 0.45174,2.03384c0.22587,0.90449 0,4.29455 -0.67862,7.005c-0.67761,2.71145 0.22687,5.19603 0.22687,6.77813c0,1.58109 1.12935,2.48458 1.12935,2.48458c0,0 2.48558,2.93833 3.61594,3.16319c1.13036,0.22487 1.80797,1.5821 1.80797,1.5821l1.58109,2.25871z"/><path d="M47.68312,34.11303l13.55725,-1.69453c0,0 4.74429,0 7.11743,-1.69453c2.37214,-1.69453 0,-1.69453 7.11743,-3.04975c7.11743,-1.35623 5.0846,-2.03384 8.81297,-1.35623c3.72737,0.67862 4.74429,0.67862 8.81196,1.35623c4.06667,0.67761 5.08359,-0.3383 8.81096,0.67761c3.72837,1.01692 5.4229,0.67761 8.47366,0.67761h9.48958c4.74529,0 9.15127,-2.71145 10.8458,-1.01692c1.69453,1.69453 2.71145,1.01692 8.47366,1.69453c5.76121,0.67761 8.13435,-0.67862 10.5065,0c2.37315,0.67761 6.44083,-0.3383 11.18511,0c4.74429,0.3383 7.11743,-0.3383 8.81196,-0.3383c1.69453,0 3.38806,-2.37315 5.76121,-0.33931c2.37315,2.03384 5.4229,-0.67761 5.76121,2.03384c0.33931,2.71145 4.74529,0.67761 0.33931,2.71145c-4.40598,2.03384 -3.72837,1.69453 -6.77913,4.40598c-3.04975,2.71145 2.03384,5.08359 -4.40598,7.45674c-6.43982,2.37214 -7.45674,-1.35623 -9.15127,2.71145c-1.69453,4.06667 0,5.08359 -0.3383,7.11743c-0.33931,2.03284 -1.01692,2.37214 -3.05076,4.06667c-2.03284,1.69453 -2.03284,0 -6.77813,1.01692c-4.74529,1.01692 -8.13435,2.03384 -10.16719,2.03384c-2.03384,0 -6.43982,1.69453 -7.79605,2.37214c-1.35623,0.67862 2.37315,1.69453 -4.74529,3.72837c-7.11743,2.03384 -8.81297,1.69554 -10.8458,4.40598c-2.03384,2.71245 -1.35623,3.05176 -2.71145,4.74629c-1.35623,1.69453 -5.4229,8.47366 -7.45674,6.77913c-2.03284,-1.69453 -3.05076,-1.35623 -4.74529,-3.05076c-1.69453,-1.69453 -2.71145,-4.06667 -3.72837,-5.4229c-1.01692,-1.35623 -1.35623,-4.74529 -1.69453,-6.77913c-0.3383,-2.03384 -3.39007,-6.77813 0,-6.10051c3.38906,0.67761 5.4229,0.33931 6.43982,-0.3383c1.01692,-0.67862 2.03384,-3.05076 2.03384,-3.05076c0,0 -0.3383,-3.72837 -1.35623,-5.76221c-1.01692,-2.03384 -0.3383,-3.72837 -2.03284,-5.76121c-1.69453,-2.03384 -1.69453,-1.69453 -4.06768,-3.72837c-2.37214,-2.03384 -1.69453,-3.05076 -5.4229,-3.38906c-3.72837,-0.3383 -4.74529,-1.35623 -6.10152,-1.01692c-1.35522,0.3383 -5.76121,-2.37315 -1.01692,-2.71145c4.74529,-0.33931 9.15127,0.3383 9.15127,0.3383c0,0 6.10051,-2.71145 4.06768,-3.04975c-2.03284,-0.33931 3.04975,-3.39007 -1.69453,-2.37315c-4.74529,1.01692 -10.16719,2.37315 -11.52342,2.71145c-1.35522,0.3383 -4.74529,0.67761 -8.13435,1.69453c-3.38806,1.01692 -7.45674,0.67862 -9.48958,3.05076c-2.03384,2.37214 0,2.71145 -2.03384,2.37214c-2.03284,-0.3383 1.69453,-2.37214 -3.04975,0c-4.74529,2.37315 -3.38906,2.03384 -5.76121,1.35623c-2.37315,-0.67761 -4.06768,-1.69453 -4.06768,-1.69453c0,0 3.05176,-0.33931 -1.35522,-0.67761c-4.40598,-0.3383 -4.40598,-0.3383 -6.10051,-2.37315c-1.69453,-2.03384 -0.67761,-2.03384 0.3383,-2.71145c1.00387,-0.67862 1.6865,-2.03484 1.6865,-2.03484z"/><path d="M40.23642,49.36482l2.35909,2.37515c0,0 1.69453,-0.67761 6.77813,-1.69453c5.0846,-1.01692 5.4229,-0.33931 8.13435,1.35522c2.71145,1.69554 2.37315,1.69554 7.45674,2.37315c5.08359,0.67761 1.35623,4.06667 1.35623,4.06667l4.40598,4.40598l1.35623,4.40598l-1.35623,2.71145c0,0 -2.71045,-1.69453 -4.06667,-1.69453c-1.35623,0 0,0 2.03384,5.08359c2.03284,5.0846 -3.72937,0.67761 -3.72937,0.67761c0,0 -3.72837,1.01792 -0.67761,4.40699c3.05076,3.38906 -3.04975,3.04875 -5.08359,2.03284c-2.03284,-1.01792 -6.43982,-2.71245 -8.81196,-4.40699c-2.37315,-1.69353 -1.01692,-3.04975 2.37214,-4.06667c3.39007,-1.01692 3.72937,-2.03384 4.74529,-3.05076c1.01692,-1.01792 -0.3383,-4.06768 -2.03284,-8.13435c-1.69453,-4.06667 -1.01592,-1.01692 -8.81196,-3.72837c-7.79505,-2.71145 -5.4229,0.67761 -7.45574,1.69453c-2.03384,1.01692 -2.71145,-2.71145 -3.72837,-3.72837c-1.01792,-1.01692 3.04975,-3.39007 4.74429,-5.0846z"/><path d="M-35.35695,53.4325c2.03384,-2.03384 7.45674,-6.77813 9.49058,-5.4229c2.03284,1.35522 5.08259,-1.01692 7.45574,1.01692c2.37214,2.03384 5.08359,4.40598 7.11743,5.08359c2.03384,0.67761 4.40598,-1.69453 6.43982,-0.67761c2.03284,1.01692 9.15027,-5.08359 7.79505,-0.3383c-1.35623,4.74529 1.69453,6.10051 -2.03384,6.43982c-3.72837,0.33931 -7.79505,3.05076 -9.49058,2.03384c-1.69453,-1.01692 -3.05076,-2.03384 -5.76221,-0.67761c-2.71145,1.35522 -1.35522,1.35522 -4.40598,0.67761c-3.04975,-0.67761 -3.72737,0.67761 -4.40498,-0.33931c-0.67862,-1.01592 -2.71145,-0.67761 -2.37315,-3.72837c0.3383,-3.04975 1.35522,-2.71145 -0.67862,-2.71145c-2.03284,0 -3.72737,0.33931 -5.08359,-0.67761c-1.34518,-1.01692 -4.05563,-0.67862 -4.05563,-0.67862z"/></g></g></g></svg>